<?xml version="1.0" encoding="UTF-8" standalone="no"?>
<!-- Created with Inkscape (http://www.inkscape.org/) -->

<svg
   xmlns:dc="http://purl.org/dc/elements/1.1/"
   xmlns:cc="http://creativecommons.org/ns#"
   xmlns:rdf="http://www.w3.org/1999/02/22-rdf-syntax-ns#"
   xmlns:svg="http://www.w3.org/2000/svg"
   xmlns="http://www.w3.org/2000/svg"
   xmlns:sodipodi="http://sodipodi.sourceforge.net/DTD/sodipodi-0.dtd"
   xmlns:inkscape="http://www.inkscape.org/namespaces/inkscape"
   width="134.98988mm"
   height="134.98988mm"
   viewBox="0 0 134.98989 134.98989"
   version="1.1"
   id="svg24804"
   inkscape:version="0.92.3 (2405546, 2018-03-11)"
   sodipodi:docname="logo.svg">
  <defs
     id="defs24798" />
  <sodipodi:namedview
     id="base"
     pagecolor="#ffffff"
     bordercolor="#666666"
     borderopacity="1.0"
     inkscape:pageopacity="0.0"
     inkscape:pageshadow="2"
     inkscape:zoom="0.98994949"
     inkscape:cx="282.47103"
     inkscape:cy="167.01044"
     inkscape:document-units="mm"
     inkscape:current-layer="layer1"
     showgrid="false"
     fit-margin-top="0"
     fit-margin-left="0"
     fit-margin-right="0"
     fit-margin-bottom="0"
     inkscape:window-width="1865"
     inkscape:window-height="1016"
     inkscape:window-x="55"
     inkscape:window-y="27"
     inkscape:window-maximized="1" />
  <metadata
     id="metadata24801">
    <rdf:RDF>
      <cc:Work
         rdf:about="">
        <dc:format>image/svg+xml</dc:format>
        <dc:type
           rdf:resource="http://purl.org/dc/dcmitype/StillImage" />
        <dc:title></dc:title>
      </cc:Work>
    </rdf:RDF>
  </metadata>
  <g
     inkscape:label="Ebene 1"
     inkscape:groupmode="layer"
     id="layer1"
     transform="translate(153.94669,-25.977738)">
    <g
       transform="translate(44.100452,-682.68085)"
       id="g1515">
      <path
         sodipodi:nodetypes="zczz"
         inkscape:connector-curvature="0"
         id="path1592-7-4-8-7-3"
         d="m -90.696186,736.25144 c 15.19284,-7.30749 24.51313,-21.17685 24.51313,-21.17685 0,0 -34.798834,-11.60733 -49.268624,4.87645 -14.4698,16.4838 9.56265,23.60789 24.755494,16.3004 z"
         style="fill:#15b38c;fill-opacity:1;stroke:#000000;stroke-width:4;stroke-linecap:butt;stroke-linejoin:miter;stroke-miterlimit:4;stroke-dasharray:none;stroke-opacity:0.99607843" />
      <circle
         style="opacity:1;fill:#ff8a06;fill-opacity:0.99607843;stroke:#000000;stroke-width:4;stroke-linecap:round;stroke-linejoin:round;stroke-miterlimit:4;stroke-dasharray:none;stroke-opacity:0.99607843;paint-order:fill markers stroke"
         id="path815-3-0-6-4-4-9-7-6"
         cx="-118.14283"
         cy="780.60846"
         r="49.892857" />
      <path
         style="opacity:1;fill:#000000;fill-opacity:1;stroke:#000000;stroke-width:1;stroke-linecap:round;stroke-linejoin:round;stroke-miterlimit:4;stroke-dasharray:none;stroke-opacity:0.99607843;paint-order:fill markers stroke"
         d="m -137.54378,769.06018 a 9.1539227,9.1539227 0 0 0 -9.15367,9.15399 9.1539227,9.1539227 0 0 0 0.25779,2.11182 9.1539227,9.1539227 0 0 1 8.89588,-7.03963 9.1539227,9.1539227 0 0 1 8.89588,7.04185 9.1539227,9.1539227 0 0 0 0.2581,-2.11404 9.1539227,9.1539227 0 0 0 -9.15398,-9.15399 z"
         id="path1611-2-3-6-1-7"
         inkscape:connector-curvature="0" />
      <path
         style="opacity:1;fill:#000000;fill-opacity:1;stroke:#000000;stroke-width:1;stroke-linecap:round;stroke-linejoin:round;stroke-miterlimit:4;stroke-dasharray:none;stroke-opacity:0.99607843;paint-order:fill markers stroke"
         d="m -118.14288,809.09019 a 14.900276,14.900276 0 0 0 14.89987,-14.90038 14.900276,14.900276 0 0 0 -0.41961,-3.43751 14.900276,14.900276 0 0 1 -14.48026,11.45873 14.900276,14.900276 0 0 1 -14.48025,-11.46235 14.900276,14.900276 0 0 0 -0.42013,3.44113 14.900276,14.900276 0 0 0 14.90038,14.90038 z"
         id="path1611-6-54-0-6-5-5"
         inkscape:connector-curvature="0" />
      <path
         style="opacity:1;fill:#000000;fill-opacity:1;stroke:#000000;stroke-width:1;stroke-linecap:round;stroke-linejoin:round;stroke-miterlimit:4;stroke-dasharray:none;stroke-opacity:0.99607843;paint-order:fill markers stroke"
         d="m -98.742236,769.06018 a 9.1539227,9.1539227 0 0 0 -9.153724,9.15399 9.1539227,9.1539227 0 0 0 0.25779,2.11182 9.1539227,9.1539227 0 0 1 8.895934,-7.03963 9.1539227,9.1539227 0 0 1 8.89593,7.04185 9.1539227,9.1539227 0 0 0 0.2581,-2.11404 9.1539227,9.1539227 0 0 0 -9.15403,-9.15399 z"
         id="path1611-1-7-7-4-9-3"
         inkscape:connector-curvature="0" />
      <path
         inkscape:transform-center-y="26.681661"
         inkscape:transform-center-x="6.4287589"
         sodipodi:nodetypes="cczccczccc"
         inkscape:connector-curvature="0"
         id="path2009-8-8-9-7-5"
         d="m -185.17143,755.0329 c -5.68296,1.71504 -11.43532,5.63957 -10.83469,11.7429 1.01158,10.27938 5.11227,23.48628 8.37149,35.04641 3.25923,11.56022 6.66112,24.96417 11.16798,34.25813 4.50686,9.29395 21.15257,3.9045 23.69492,-0.26657 2.54234,-4.17107 -1.48148,-23.98886 -7.97755,-24.1891 -9.39871,0.37068 -6.08332,13.16604 -13.61389,-13.54414 -7.53056,-26.7101 -3.6741,-14.0677 4.53407,-18.66108 5.4348,-3.56395 -1.48585,-22.565 -5.83253,-24.79379 -1.76584,-0.90544 -5.62146,-0.76622 -9.5098,0.40724 z"
         style="fill:#123cff;fill-opacity:1;stroke:#000000;stroke-width:4;stroke-linecap:butt;stroke-linejoin:miter;stroke-miterlimit:4;stroke-dasharray:none;stroke-opacity:0.99607843" />
    </g>
  </g>
</svg>
