<?xml version="1.0" encoding="UTF-8" standalone="no"?>
<!DOCTYPE svg PUBLIC "-//W3C//DTD SVG 1.0//EN" "http://www.w3.org/TR/2001/PR-SVG-20010719/DTD/svg10.dtd">
<svg width="24cm" height="14cm" viewBox="178 178 463 263" xmlns="http://www.w3.org/2000/svg" xmlns:xlink="http://www.w3.org/1999/xlink">
  <g>
    <rect style="fill: #ffffff" x="180" y="280" width="340" height="80"/>
    <rect style="fill: none; fill-opacity:0; stroke-width: 2; stroke-dasharray: 4; stroke: #000000" x="180" y="280" width="340" height="80"/>
    <text font-size="12.7998" style="fill: #000000;text-anchor:start;font-family:sans-serif;font-style:normal;font-weight:normal" x="189" y="323.881">
      <tspan x="189" y="323.881"></tspan>
    </text>
  </g>
  <g>
    <rect style="fill: #ffffff" x="180" y="180" width="340" height="80"/>
    <rect style="fill: none; fill-opacity:0; stroke-width: 2; stroke-dasharray: 4; stroke: #000000" x="180" y="180" width="340" height="80"/>
    <text font-size="12.7998" style="fill: #000000;text-anchor:start;font-family:sans-serif;font-style:normal;font-weight:normal" x="189" y="223.881">
      <tspan x="189" y="223.881"></tspan>
    </text>
  </g>
  <g>
    <rect style="fill: #ffffff" x="400" y="200" width="100" height="40"/>
    <rect style="fill: none; fill-opacity:0; stroke-width: 2; stroke: #000000" x="400" y="200" width="100" height="40"/>
    <text font-size="12.7998" style="fill: #000000;text-anchor:middle;font-family:sans-serif;font-style:normal;font-weight:normal" x="450" y="223.881">
      <tspan x="450" y="223.881">frontend</tspan>
    </text>
  </g>
  <g>
    <rect style="fill: #ffffff" x="400" y="300" width="100" height="40"/>
    <rect style="fill: none; fill-opacity:0; stroke-width: 2; stroke: #000000" x="400" y="300" width="100" height="40"/>
    <text font-size="12.7998" style="fill: #000000;text-anchor:middle;font-family:sans-serif;font-style:normal;font-weight:normal" x="450" y="323.881">
      <tspan x="450" y="323.881">backend</tspan>
    </text>
  </g>
  <g>
    <rect style="fill: #ffffff" x="400" y="400" width="100" height="40"/>
    <rect style="fill: none; fill-opacity:0; stroke-width: 2; stroke: #000000" x="400" y="400" width="100" height="40"/>
    <text font-size="12.7998" style="fill: #000000;text-anchor:middle;font-family:sans-serif;font-style:normal;font-weight:normal" x="450" y="423.881">
      <tspan x="450" y="423.881">database</tspan>
    </text>
  </g>
  <g>
    <line style="fill: none; fill-opacity:0; stroke-width: 2; stroke: #000000" x1="450" y1="240.977" x2="450" y2="290.264"/>
    <polygon style="fill: #000000" points="450,297.764 445,287.764 450,290.264 455,287.764 "/>
    <polygon style="fill: none; fill-opacity:0; stroke-width: 2; stroke: #000000" points="450,297.764 445,287.764 450,290.264 455,287.764 "/>
  </g>
  <g>
    <line style="fill: none; fill-opacity:0; stroke-width: 2; stroke: #000000" x1="450" y1="340.977" x2="450" y2="390.264"/>
    <polygon style="fill: #000000" points="450,397.764 445,387.764 450,390.264 455,387.764 "/>
    <polygon style="fill: none; fill-opacity:0; stroke-width: 2; stroke: #000000" points="450,397.764 445,387.764 450,390.264 455,387.764 "/>
  </g>
  <g>
    <rect style="fill: #ffffff" x="540" y="400" width="100" height="40"/>
    <rect style="fill: none; fill-opacity:0; stroke-width: 2; stroke: #000000" x="540" y="400" width="100" height="40"/>
    <text font-size="12.7998" style="fill: #000000;text-anchor:middle;font-family:sans-serif;font-style:normal;font-weight:normal" x="590" y="423.881">
      <tspan x="590" y="423.881">mail</tspan>
    </text>
  </g>
  <g>
    <rect style="fill: #ffffff" x="540" y="200" width="100" height="40"/>
    <rect style="fill: none; fill-opacity:0; stroke-width: 2; stroke: #000000" x="540" y="200" width="100" height="40"/>
    <text font-size="12.7998" style="fill: #000000;text-anchor:middle;font-family:sans-serif;font-style:normal;font-weight:normal" x="590" y="223.881">
      <tspan x="590" y="223.881">webmail</tspan>
    </text>
  </g>
  <text font-size="12.7998" style="fill: #000000;text-anchor:start;font-family:sans-serif;font-style:normal;font-weight:normal" x="350" y="220">
    <tspan x="350" y="220"></tspan>
  </text>
  <text font-size="12.7998" style="fill: #000000;text-anchor:start;font-family:sans-serif;font-style:normal;font-weight:normal" x="200" y="216.245">
    <tspan x="200" y="216.245">debugging in web browser</tspan>
    <tspan x="200" y="232.245">(e.g. Firefox or Chromium)</tspan>
  </text>
  <text font-size="12.7998" style="fill: #000000;text-anchor:start;font-family:sans-serif;font-style:normal;font-weight:normal" x="200" y="316.245">
    <tspan x="200" y="316.245">debugging in IDE</tspan>
    <tspan x="200" y="332.245">(e.g. Spring Tool Suite 4)</tspan>
  </text>
  <g>
    <line style="fill: none; fill-opacity:0; stroke-width: 2; stroke: #000000" x1="475" y1="340" x2="551.854" y2="393.464"/>
    <polygon style="fill: #000000" points="558.011,397.746 546.946,396.14 551.854,393.464 552.657,387.931 "/>
    <polygon style="fill: none; fill-opacity:0; stroke-width: 2; stroke: #000000" points="558.011,397.746 546.946,396.14 551.854,393.464 552.657,387.931 "/>
  </g>
  <g>
    <line style="fill: none; fill-opacity:0; stroke-width: 2; stroke: #000000" x1="590" y1="240" x2="590" y2="390.264"/>
    <polygon style="fill: #000000" points="590,397.764 585,387.764 590,390.264 595,387.764 "/>
    <polygon style="fill: none; fill-opacity:0; stroke-width: 2; stroke: #000000" points="590,397.764 585,387.764 590,390.264 595,387.764 "/>
  </g>
  <text font-size="12.7998" style="fill: #000000;text-anchor:start;font-family:sans-serif;font-style:normal;font-weight:normal" x="460" y="100">
    <tspan x="460" y="100"></tspan>
  </text>
</svg>
